<svg width="25" height="25" viewBox="0 0 25 25" fill="none" xmlns="http://www.w3.org/2000/svg">
<g clip-path="url(#clip0)">
<path d="M19.5312 25H5.46875C4.01835 25 2.62735 24.4238 1.60176 23.3982C0.57617 22.3727 0 20.9817 0 19.5312L0 5.46875C0 4.01835 0.57617 2.62735 1.60176 1.60176C2.62735 0.57617 4.01835 0 5.46875 0L13.2812 0V1.5625H5.46875C4.43275 1.5625 3.43918 1.97405 2.70661 2.70661C1.97405 3.43918 1.5625 4.43275 1.5625 5.46875V19.5312C1.5625 20.5673 1.97405 21.5608 2.70661 22.2934C3.43918 23.0259 4.43275 23.4375 5.46875 23.4375H19.5312C20.5673 23.4375 21.5608 23.0259 22.2934 22.2934C23.0259 21.5608 23.4375 20.5673 23.4375 19.5312V11.7188H25V19.5312C25 20.9817 24.4238 22.3727 23.3982 23.3982C22.3727 24.4238 20.9817 25 19.5312 25Z" fill="#CFD8E3"/>
<path d="M19.5313 10.9375C18.4496 10.9375 17.3923 10.6168 16.493 10.0159C15.5936 9.41494 14.8927 8.56084 14.4788 7.56155C14.0649 6.56227 13.9566 5.46269 14.1676 4.40185C14.3786 3.34102 14.8994 2.36658 15.6643 1.60176C16.4291 0.836944 17.4035 0.316096 18.4644 0.105083C19.5252 -0.10593 20.6248 0.00236956 21.6241 0.416286C22.6233 0.830203 23.4774 1.53115 24.0784 2.43048C24.6793 3.32981 25 4.38714 25 5.46875C25 6.91916 24.4238 8.31015 23.3982 9.33574C22.3727 10.3613 20.9817 10.9375 19.5313 10.9375ZM19.5313 1.5625C18.7587 1.5625 18.0034 1.7916 17.3611 2.22082C16.7187 2.65005 16.218 3.26012 15.9223 3.9739C15.6267 4.68767 15.5493 5.47309 15.7001 6.23082C15.8508 6.98856 16.2228 7.68459 16.7691 8.23089C17.3154 8.77719 18.0114 9.14922 18.7692 9.29994C19.5269 9.45067 20.3123 9.37331 21.0261 9.07766C21.7399 8.782 22.35 8.28133 22.7792 7.63895C23.2084 6.99657 23.4375 6.24134 23.4375 5.46875C23.4375 4.43275 23.026 3.43918 22.2934 2.70662C21.5608 1.97405 20.5673 1.5625 19.5313 1.5625Z" fill="#CFD8E3"/>
<ellipse cx="19.5312" cy="5.46875" rx="5.46875" ry="5.46875" fill="#FF9764"/>
</g>
<defs>
<clipPath id="clip0">
<rect width="25" height="25" fill="white"/>
</clipPath>
</defs>
</svg>
