<svg width="89" height="22" viewBox="0 0 89 22" fill="none" xmlns="http://www.w3.org/2000/svg">
<path d="M15.6892 19.708H5.83296C4.8164 19.708 3.84147 19.3041 3.12265 18.5853C2.40383 17.8665 2 16.8916 2 15.875V6.01882C2 5.00225 2.40383 4.02732 3.12265 3.3085C3.84147 2.58968 4.8164 2.18585 5.83296 2.18585L11.3086 2.18585V3.28098H5.83296C5.10685 3.28098 4.41047 3.56943 3.89703 4.08288C3.38358 4.59632 3.09513 5.2927 3.09513 6.01882V15.875C3.09513 16.6011 3.38358 17.2975 3.89703 17.811C4.41047 18.3244 5.10685 18.6128 5.83296 18.6128H15.6892C16.4153 18.6128 17.1117 18.3244 17.6251 17.811C18.1385 17.2975 18.427 16.6011 18.427 15.875V10.3993H19.5221V15.875C19.5221 16.8916 19.1183 17.8665 18.3995 18.5853C17.6807 19.3041 16.7057 19.708 15.6892 19.708Z" fill="#39465C"/>
<path d="M15.6892 9.85178C14.9311 9.85178 14.19 9.62698 13.5597 9.20581C12.9294 8.78464 12.4381 8.18601 12.148 7.48563C11.8579 6.78525 11.782 6.01457 11.9299 5.27104C12.0777 4.52752 12.4428 3.84455 12.9789 3.3085C13.5149 2.77245 14.1979 2.4074 14.9414 2.2595C15.6849 2.11161 16.4556 2.18751 17.156 2.47762C17.8564 2.76773 18.455 3.25901 18.8762 3.88934C19.2973 4.51967 19.5221 5.26073 19.5221 6.01882C19.5221 7.03538 19.1183 8.01031 18.3995 8.72913C17.6807 9.44795 16.7057 9.85178 15.6892 9.85178ZM15.6892 3.28099C15.1477 3.28099 14.6183 3.44156 14.1681 3.74239C13.7179 4.04323 13.367 4.47082 13.1597 4.9711C12.9525 5.47137 12.8983 6.02186 13.0039 6.55294C13.1096 7.08403 13.3703 7.57186 13.7532 7.95476C14.1361 8.33765 14.624 8.5984 15.155 8.70404C15.6861 8.80968 16.2366 8.75547 16.7369 8.54825C17.2372 8.34103 17.6648 7.99011 17.9656 7.53988C18.2664 7.08964 18.427 6.56031 18.427 6.01882C18.427 5.2927 18.1386 4.59632 17.6251 4.08288C17.1117 3.56944 16.4153 3.28099 15.6892 3.28099Z" fill="#39465C"/>
<circle cx="15.6892" cy="6.01882" r="3.83296" fill="#FF9764"/>
<path d="M27.6504 18V3.78125H31.6641C32.901 3.78125 33.9948 4.05469 34.9453 4.60156C35.8958 5.14844 36.6283 5.92643 37.1426 6.93555C37.6634 7.94466 37.9271 9.10352 37.9336 10.4121V11.3203C37.9336 12.6615 37.6732 13.8366 37.1523 14.8457C36.638 15.8548 35.8991 16.6296 34.9355 17.1699C33.9785 17.7103 32.862 17.987 31.5859 18H27.6504ZM29.5254 5.32422V16.4668H31.498C32.9434 16.4668 34.0664 16.0176 34.8672 15.1191C35.6745 14.2207 36.0781 12.9414 36.0781 11.2812V10.4512C36.0781 8.83659 35.6973 7.58333 34.9355 6.69141C34.1803 5.79297 33.1061 5.33724 31.7129 5.32422H29.5254ZM47.0156 18C46.9115 17.7917 46.8268 17.4206 46.7617 16.8867C45.9219 17.7591 44.9193 18.1953 43.7539 18.1953C42.7122 18.1953 41.8561 17.9023 41.1855 17.3164C40.5215 16.724 40.1895 15.9753 40.1895 15.0703C40.1895 13.9701 40.6061 13.1172 41.4395 12.5117C42.2793 11.8997 43.4577 11.5938 44.9746 11.5938H46.7324V10.7637C46.7324 10.1322 46.5436 9.63086 46.166 9.25977C45.7884 8.88216 45.2318 8.69336 44.4961 8.69336C43.8516 8.69336 43.3112 8.85612 42.875 9.18164C42.4388 9.50716 42.2207 9.90104 42.2207 10.3633H40.4043C40.4043 9.83594 40.5898 9.32812 40.9609 8.83984C41.3385 8.34505 41.8464 7.95443 42.4844 7.66797C43.1289 7.38151 43.8353 7.23828 44.6035 7.23828C45.821 7.23828 46.7747 7.54427 47.4648 8.15625C48.1549 8.76172 48.513 9.59831 48.5391 10.666V15.5293C48.5391 16.4993 48.6628 17.2708 48.9102 17.8438V18H47.0156ZM44.0176 16.623C44.584 16.623 45.1211 16.4766 45.6289 16.1836C46.1367 15.8906 46.5046 15.5098 46.7324 15.041V12.873H45.3164C43.1029 12.873 41.9961 13.5208 41.9961 14.8164C41.9961 15.3828 42.1849 15.8255 42.5625 16.1445C42.9401 16.4635 43.4251 16.623 44.0176 16.623ZM57.5234 15.1973C57.5234 14.709 57.3379 14.3314 56.9668 14.0645C56.6022 13.791 55.9609 13.5566 55.043 13.3613C54.1315 13.166 53.4056 12.9316 52.8652 12.6582C52.3314 12.3848 51.9342 12.0592 51.6738 11.6816C51.4199 11.304 51.293 10.8548 51.293 10.334C51.293 9.4681 51.6576 8.73568 52.3867 8.13672C53.1224 7.53776 54.0599 7.23828 55.1992 7.23828C56.3971 7.23828 57.3672 7.54753 58.1094 8.16602C58.8581 8.78451 59.2324 9.57552 59.2324 10.5391H57.416C57.416 10.0443 57.2044 9.61784 56.7812 9.25977C56.3646 8.90169 55.8372 8.72266 55.1992 8.72266C54.5417 8.72266 54.0273 8.86589 53.6562 9.15234C53.2852 9.4388 53.0996 9.81315 53.0996 10.2754C53.0996 10.7116 53.2721 11.0404 53.6172 11.2617C53.9622 11.4831 54.584 11.6947 55.4824 11.8965C56.3874 12.0983 57.1198 12.3392 57.6797 12.6191C58.2396 12.8991 58.653 13.2376 58.9199 13.6348C59.1934 14.0254 59.3301 14.5039 59.3301 15.0703C59.3301 16.0143 58.9525 16.7728 58.1973 17.3457C57.4421 17.9121 56.4622 18.1953 55.2578 18.1953C54.4115 18.1953 53.6628 18.0456 53.0117 17.7461C52.3607 17.4466 51.8496 17.0299 51.4785 16.4961C51.1139 15.9557 50.9316 15.373 50.9316 14.748H52.7383C52.7708 15.3535 53.0117 15.8353 53.4609 16.1934C53.9167 16.5449 54.5156 16.7207 55.2578 16.7207C55.9414 16.7207 56.4883 16.584 56.8984 16.3105C57.3151 16.0306 57.5234 15.6595 57.5234 15.1973ZM63.4902 8.71289C64.291 7.72982 65.3327 7.23828 66.6152 7.23828C68.8483 7.23828 69.9746 8.49805 69.9941 11.0176V18H68.1875V11.0078C68.181 10.2461 68.0052 9.68294 67.6602 9.31836C67.3216 8.95378 66.791 8.77148 66.0684 8.77148C65.4824 8.77148 64.9681 8.92773 64.5254 9.24023C64.0827 9.55273 63.7376 9.96289 63.4902 10.4707V18H61.6836V3H63.4902V8.71289ZM72.2207 12.6191C72.2207 11.584 72.4225 10.653 72.8262 9.82617C73.2363 8.99935 73.8027 8.36133 74.5254 7.91211C75.2546 7.46289 76.0846 7.23828 77.0156 7.23828C78.4544 7.23828 79.6165 7.73633 80.502 8.73242C81.3939 9.72852 81.8398 11.0534 81.8398 12.707V12.834C81.8398 13.8626 81.6413 14.7871 81.2441 15.6074C80.8535 16.4212 80.2904 17.056 79.5547 17.5117C78.8255 17.9674 77.9857 18.1953 77.0352 18.1953C75.6029 18.1953 74.4408 17.6973 73.5488 16.7012C72.6634 15.7051 72.2207 14.3867 72.2207 12.7461V12.6191ZM74.0371 12.834C74.0371 14.0059 74.3073 14.9466 74.8477 15.6562C75.3945 16.3659 76.1237 16.7207 77.0352 16.7207C77.9531 16.7207 78.6823 16.3626 79.2227 15.6465C79.763 14.9238 80.0332 13.9147 80.0332 12.6191C80.0332 11.4603 79.7565 10.5228 79.2031 9.80664C78.6562 9.08398 77.9271 8.72266 77.0156 8.72266C76.1237 8.72266 75.4043 9.07747 74.8574 9.78711C74.3105 10.4967 74.0371 11.5124 74.0371 12.834Z" fill="#39465C"/>
</svg>
