<svg width="20" height="20" viewBox="0 0 20 20" fill="none" xmlns="http://www.w3.org/2000/svg">
<g clip-path="url(#clip0)">
<path d="M15.625 20H4.375C3.21468 20 2.10188 19.5391 1.28141 18.7186C0.460936 17.8981 0 16.7853 0 15.625L0 4.375C0 3.21468 0.460936 2.10188 1.28141 1.28141C2.10188 0.460936 3.21468 0 4.375 0L10.625 0V1.25H4.375C3.5462 1.25 2.75134 1.57924 2.16529 2.16529C1.57924 2.75134 1.25 3.5462 1.25 4.375V15.625C1.25 16.4538 1.57924 17.2487 2.16529 17.8347C2.75134 18.4208 3.5462 18.75 4.375 18.75H15.625C16.4538 18.75 17.2487 18.4208 17.8347 17.8347C18.4208 17.2487 18.75 16.4538 18.75 15.625V9.375H20V15.625C20 16.7853 19.5391 17.8981 18.7186 18.7186C17.8981 19.5391 16.7853 20 15.625 20Z" fill="#39465C"/>
<path d="M15.625 8.75C14.7597 8.75 13.9138 8.49341 13.1944 8.01268C12.4749 7.53195 11.9142 6.84867 11.583 6.04924C11.2519 5.24982 11.1653 4.37015 11.3341 3.52148C11.5029 2.67282 11.9196 1.89326 12.5314 1.28141C13.1433 0.669555 13.9228 0.252877 14.7715 0.0840664C15.6201 -0.084744 16.4998 0.00189565 17.2992 0.333029C18.0987 0.664162 18.7819 1.22492 19.2627 1.94438C19.7434 2.66385 20 3.50971 20 4.375C20 5.53532 19.5391 6.64812 18.7186 7.46859C17.8981 8.28907 16.7853 8.75 15.625 8.75ZM15.625 1.25C15.0069 1.25 14.4027 1.43328 13.8888 1.77666C13.3749 2.12004 12.9744 2.6081 12.7379 3.17912C12.5014 3.75014 12.4395 4.37847 12.56 4.98466C12.6806 5.59085 12.9783 6.14767 13.4153 6.58471C13.8523 7.02175 14.4092 7.31938 15.0153 7.43996C15.6215 7.56053 16.2499 7.49865 16.8209 7.26213C17.3919 7.0256 17.88 6.62506 18.2233 6.11116C18.5667 5.59726 18.75 4.99307 18.75 4.375C18.75 3.5462 18.4208 2.75134 17.8347 2.16529C17.2487 1.57924 16.4538 1.25 15.625 1.25Z" fill="#39465C"/>
<ellipse cx="15.625" cy="4.375" rx="4.375" ry="4.375" fill="#FF9764"/>
</g>
<defs>
<clipPath id="clip0">
<rect width="20" height="20" fill="white"/>
</clipPath>
</defs>
</svg>
